<svg width="557" height="540" viewBox="0 0 557 540" fill="none" xmlns="http://www.w3.org/2000/svg">
<path d="M105.728 324.537C104.84 324.748 103.914 324.819 103.026 324.819C102.293 324.819 101.56 324.748 100.904 324.643C96.697 323.902 93.1079 321.011 92.0273 316.956C91.1783 313.677 90.2906 310.433 89.4802 307.153C88.5926 303.592 87.8593 299.996 87.2032 296.399C86.1227 290.44 85.3894 284.446 85.0034 278.451C84.5789 272.739 89.3644 267.873 95.6164 267.486C101.83 267.203 107.194 271.505 107.619 277.217C108.159 285.715 109.51 294.213 111.594 302.57C112.366 305.708 113.176 308.846 114.025 312.019C115.53 317.555 111.825 323.162 105.728 324.537Z" fill="url(#paint0_linear_48_444)"/>
<path d="M136.988 379.437C128.922 369.318 121.512 358.845 114.642 348.091C120.123 347.103 125.68 349.995 127.494 355.002C130.466 363.182 133.63 371.327 136.988 379.437Z" fill="url(#paint1_linear_48_444)"/>
<path d="M95.8479 259.164C96.2724 259.199 96.7355 259.235 97.16 259.235C102.833 259.235 107.734 255.356 108.391 250.067C111.787 223.057 122.979 197.141 140.731 175.068C144.436 170.449 143.355 163.996 138.3 160.611C133.244 157.226 126.182 158.214 122.477 162.833C102.409 187.797 89.7503 217.134 85.891 247.704C85.1964 253.381 89.6345 258.529 95.8479 259.164Z" fill="url(#paint2_linear_48_444)"/>
<path d="M411.382 152.572C409.182 154.758 406.133 155.851 403.084 155.851C400.305 155.851 397.565 154.934 395.404 153.065C386.103 145.167 375.799 138.186 364.8 132.332C359.359 129.476 357.545 123.129 360.671 118.193C362.446 115.372 365.456 113.609 368.775 113.151C371.207 112.833 373.831 113.186 376.146 114.42C378.578 115.689 381.009 117.064 383.363 118.475C393.127 124.187 402.389 130.71 410.841 137.974C415.395 141.888 415.665 148.411 411.382 152.572Z" fill="url(#paint3_linear_48_444)"/>
<path d="M205.567 126.232C194.066 131.204 183.145 137.375 173.149 144.533C171.065 146.013 168.634 146.754 166.164 146.754C162.806 146.754 159.449 145.379 157.249 142.769C153.39 138.256 154.277 131.768 159.14 128.242C164.273 124.575 169.599 121.12 175.117 117.946C181.832 114.103 188.74 110.612 195.919 107.509C198.196 106.522 200.666 106.31 202.943 106.733C206.339 107.368 209.426 109.378 211.008 112.481C213.671 117.629 211.201 123.799 205.567 126.232Z" fill="url(#paint4_linear_48_444)"/>
<path d="M230.459 117.241C231.424 117.241 232.427 117.135 233.431 116.888C235.785 116.324 238.139 115.76 240.493 115.266C267.392 109.695 295.488 110.154 321.692 116.289C327.751 117.699 333.926 114.385 335.47 108.849C337.013 103.313 333.386 97.6713 327.327 96.2609C297.688 89.3146 265.926 88.821 235.476 95.1326C232.775 95.6967 230.112 96.2962 227.487 96.9661C221.467 98.4823 217.878 104.159 219.537 109.66C220.888 114.208 225.442 117.241 230.459 117.241Z" fill="url(#paint5_linear_48_444)"/>
<path d="M476.796 278.663C474.712 284.446 472.396 290.193 469.965 295.87C469.463 294.989 469 294.142 468.576 293.261C465.913 288.078 468.306 281.907 473.901 279.474C474.866 279.086 475.831 278.769 476.796 278.663Z" fill="url(#paint6_linear_48_444)"/>
<path d="M415.241 173.234C429.867 190.97 440.056 211.104 445.536 233.036C446.887 238.431 448.43 243.861 450.128 249.221C451.556 253.734 456.072 256.661 460.973 256.661C462.015 256.661 463.096 256.52 464.138 256.237C470.158 254.651 473.593 248.903 471.818 243.403C470.235 238.431 468.807 233.353 467.534 228.382C461.32 203.558 449.82 180.815 433.263 160.752C429.481 156.204 422.419 155.287 417.402 158.707C412.462 162.198 411.497 168.686 415.241 173.234Z" fill="url(#paint7_linear_48_444)"/>
<path d="M406.866 222.846C412.501 220.378 414.893 214.207 412.192 209.059C403.701 192.804 391.969 178.488 377.266 166.535C377.188 166.464 377.111 166.429 377.073 166.359C351.331 145.449 317.987 133.39 283.292 132.403C277.04 132.332 271.83 136.705 271.637 142.417C271.444 148.129 276.346 152.889 282.598 153.065C311.928 153.876 340.101 164.031 361.867 181.626C361.944 181.662 361.983 181.732 362.06 181.767C374.564 191.922 384.559 204.087 391.776 217.909C393.706 221.612 397.758 223.798 402.003 223.798C403.624 223.868 405.284 223.551 406.866 222.846Z" fill="url(#paint8_linear_48_444)"/>
<path d="M458.194 320.588C454.335 328.028 450.206 335.327 445.922 342.308C442.449 337.231 439.168 332.083 436.081 326.864C436.042 326.829 436.042 326.794 436.004 326.723C420.181 300.031 408.526 271.893 401.232 243.156C400.151 238.819 402.235 234.482 406.133 232.155C407.213 231.52 408.41 231.062 409.722 230.779C415.781 229.51 421.917 232.93 423.307 238.502C430.099 265.405 441.059 291.709 455.917 316.744C455.917 316.78 455.956 316.815 455.956 316.885C456.651 318.12 457.422 319.354 458.194 320.588Z" fill="url(#paint9_linear_48_444)"/>
<path d="M236.325 468.646L232.427 466.107C216.759 455.882 201.823 444.634 187.737 432.434C186.077 429.507 184.495 426.616 182.874 423.654C180.096 418.506 182.45 412.3 188.084 409.832C188.509 409.656 188.895 409.514 189.319 409.373C194.645 407.646 200.627 409.797 203.213 414.557C211.008 429.084 219.576 443.47 228.722 457.433C231.231 461.206 233.701 464.944 236.325 468.646Z" fill="url(#paint10_linear_48_444)"/>
<path d="M262.53 143.157C261.295 137.551 255.351 133.919 249.177 135.047C247.98 135.259 246.784 135.506 245.587 135.753C227.526 139.526 210.623 146.225 195.378 155.675C195.34 155.71 195.301 155.71 195.263 155.745C166.704 173.481 145.671 199.997 136.062 230.356C134.325 235.857 137.798 241.569 143.78 243.156C144.822 243.438 145.903 243.579 146.945 243.579C151.846 243.579 156.361 240.652 157.828 236.104C165.971 210.364 183.762 187.938 207.921 172.882C207.96 172.847 207.998 172.847 207.998 172.811C220.927 164.772 235.245 159.095 250.566 155.922C251.569 155.71 252.611 155.498 253.615 155.322C259.79 154.194 263.765 148.764 262.53 143.157Z" fill="url(#paint11_linear_48_444)"/>
<path d="M190.246 388.746C177.857 362.442 167.707 335.327 160.028 308.141C159.989 308.07 159.989 307.965 159.95 307.894C158.6 303.063 157.287 298.197 156.091 293.367C154.007 284.975 152.927 276.371 152.927 267.838C152.927 265.969 152.965 264.136 153.081 262.302C153.39 256.59 148.566 251.759 142.314 251.477C136.1 251.231 130.774 255.603 130.466 261.315C130.35 263.501 130.273 265.687 130.273 267.873C130.273 277.958 131.546 288.113 134.016 297.986C135.29 303.134 136.64 308.247 138.107 313.359C138.146 313.43 138.145 313.536 138.184 313.606C146.134 341.744 156.67 369.776 169.444 396.962C171.297 400.876 175.465 403.238 179.864 403.238C181.369 403.238 182.874 402.956 184.341 402.392C190.053 400.065 192.715 394 190.246 388.746Z" fill="url(#paint12_linear_48_444)"/>
<path d="M301.161 481.41L282.713 493.399C269.438 477.144 257.126 460.184 245.857 442.659C242.693 437.723 244.507 431.411 249.871 428.52C255.274 425.628 262.221 427.286 265.347 432.187C276.269 449.147 288.232 465.649 301.161 481.41Z" fill="url(#paint13_linear_48_444)"/>
<path d="M194.143 339.311C195.726 343.648 200.125 346.363 204.872 346.363C206.069 346.363 207.304 346.187 208.5 345.834C214.443 344.001 217.608 338.147 215.64 332.717C209.735 316.674 204.679 300.313 200.627 284.058C199.276 278.698 198.62 273.233 198.62 267.803C198.62 262.972 199.16 258.142 200.202 253.417C201.437 247.81 197.501 242.345 191.365 241.216C185.267 240.088 179.247 243.685 178.012 249.291C176.661 255.356 175.966 261.597 175.966 267.768C175.966 274.749 176.815 281.766 178.552 288.642C182.759 305.567 188.007 322.633 194.143 339.311Z" fill="url(#paint14_linear_48_444)"/>
<path d="M275.96 194.778C304.596 193.932 331.147 206.767 346.237 228.734C348.398 231.872 352.064 233.6 355.847 233.6C357.892 233.6 359.976 233.107 361.867 232.013C367.154 228.981 368.775 222.599 365.456 217.768C346.083 189.525 312.044 172.988 275.227 174.116C268.975 174.292 264.073 179.088 264.305 184.8C264.459 190.512 269.592 194.99 275.96 194.778Z" fill="url(#paint15_linear_48_444)"/>
<path d="M222.007 401.792C223.937 405.495 227.989 407.646 232.234 407.646C233.894 407.646 235.553 407.328 237.136 406.623C242.77 404.155 245.124 397.984 242.423 392.801C236.634 381.835 231.231 370.587 226.368 359.374C224.053 354.085 217.453 351.476 211.665 353.591C205.837 355.707 203.02 361.736 205.335 367.026C210.391 378.661 215.987 390.368 222.007 401.792Z" fill="url(#paint16_linear_48_444)"/>
<path d="M432.646 362.477C428.632 368.154 424.464 373.725 420.142 379.19C419.718 379.719 419.293 380.284 418.83 380.812C407.175 365.333 396.871 349.078 387.84 332.294C385.061 327.146 387.416 320.94 393.05 318.472C398.685 315.933 405.4 318.049 408.178 323.232C415.434 336.702 423.615 349.854 432.646 362.477Z" fill="url(#paint17_linear_48_444)"/>
<path d="M240.532 180.745C226.407 185.893 213.44 194.038 203.136 204.299C198.89 208.495 199.199 215.053 203.83 218.897C205.991 220.73 208.731 221.612 211.472 221.612C214.52 221.612 217.569 220.483 219.808 218.262C227.951 210.152 237.753 203.981 248.907 199.927C254.734 197.811 257.551 191.781 255.236 186.492C252.92 181.238 246.321 178.629 240.532 180.745Z" fill="url(#paint18_linear_48_444)"/>
<path d="M389.384 310.891C395.211 308.775 398.067 302.781 395.751 297.457C390.889 286.209 386.644 274.679 383.093 263.184C381.395 257.683 375.182 254.474 369.122 256.026C363.102 257.577 359.59 263.289 361.288 268.79C365.032 280.955 369.508 293.155 374.68 305.073C376.455 309.128 380.7 311.631 385.216 311.631C386.605 311.596 388.033 311.385 389.384 310.891Z" fill="url(#paint19_linear_48_444)"/>
<path d="M259.674 377.11C261.603 380.883 265.694 383.104 269.939 383.104C271.522 383.104 273.143 382.787 274.686 382.152C280.359 379.755 282.829 373.619 280.205 368.436C274.609 357.4 269.438 346.081 264.807 334.798C262.607 329.438 256.085 326.723 250.219 328.733C244.352 330.743 241.381 336.702 243.581 342.061C248.443 353.803 253.846 365.58 259.674 377.11Z" fill="url(#paint20_linear_48_444)"/>
<path d="M296.105 240.864C304.248 245.307 309.921 252.394 312.005 260.857L312.893 264.312C314.128 269.072 318.759 272.281 323.892 272.281C324.741 272.281 325.629 272.175 326.516 271.999C332.614 270.694 336.357 265.088 334.891 259.552L334.042 256.273C330.53 242.239 321.152 230.497 307.644 223.128C302.28 220.201 295.333 221.823 292.13 226.724C288.966 231.59 290.741 237.937 296.105 240.864Z" fill="url(#paint21_linear_48_444)"/>
<path d="M338.055 456.905C335.161 458.985 332.267 460.995 329.256 462.969C327.674 463.992 326.13 465.085 324.548 466.107L319.801 469.21C306.487 452.955 294.214 435.854 283.061 418.294C279.935 413.358 281.787 407.046 287.19 404.19C292.632 401.334 299.54 402.991 302.666 407.963C313.356 424.888 325.243 441.249 338.055 456.905Z" fill="url(#paint22_linear_48_444)"/>
<path d="M248.559 223.551C231.887 232.966 221.544 249.926 221.544 267.803C221.544 271.682 222.007 275.56 222.972 279.368C225.867 290.898 229.263 302.57 233.122 314.029C234.627 318.472 239.104 321.328 243.928 321.328C245.047 321.328 246.166 321.187 247.247 320.87C253.229 319.177 256.586 313.395 254.734 307.929C251.029 296.963 247.787 285.821 245.008 274.784C244.43 272.492 244.159 270.13 244.159 267.803C244.159 257.013 250.411 246.788 260.446 241.111C265.771 238.114 267.392 231.731 264.112 226.866C260.87 222.035 253.885 220.519 248.559 223.551Z" fill="url(#paint23_linear_48_444)"/>
<path d="M403.547 398.795C400.112 402.639 396.523 406.447 392.857 410.184C391.545 411.559 390.194 412.899 388.766 414.239C388.573 414.028 388.419 413.781 388.226 413.569C384.598 408.95 385.717 402.427 390.811 399.077C394.709 396.574 399.726 396.574 403.547 398.795Z" fill="url(#paint24_linear_48_444)"/>
<path d="M360.632 374.36C362.716 377.71 366.537 379.578 370.473 379.578C372.364 379.578 374.294 379.155 376.069 378.203C381.511 375.382 383.402 369.071 380.314 364.099C364.877 339.346 352.373 313.324 343.15 286.667C341.259 281.237 334.891 278.205 328.948 279.932C323.004 281.66 319.685 287.478 321.576 292.908C331.302 320.976 344.423 348.373 360.632 374.36Z" fill="url(#paint25_linear_48_444)"/>
<path d="M372.442 429.578C369.238 432.504 365.919 435.29 362.6 438.005C360.323 439.909 358.008 441.778 355.654 443.647C313.279 391.708 283.022 332.259 267.47 270.13C266.119 264.559 269.901 258.988 275.999 257.718C282.096 256.449 288.194 259.94 289.583 265.511C304.21 324.22 332.653 380.389 372.442 429.578Z" fill="url(#paint26_linear_48_444)"/>
<path d="M278.507 539.484C276.191 539.484 273.914 538.85 271.946 537.545L208.809 496.431C185.885 481.516 164.273 464.45 144.59 445.727C81.723 385.819 40.1587 311.032 24.4515 229.404L0.1767 103.172C-0.479375 99.8575 0.717025 96.4372 3.34133 94.0395C5.96563 91.6418 9.7091 90.584 13.3368 91.1834C125.333 109.484 209.079 81.0636 269.322 4.30172C271.445 1.58667 274.879 0 278.507 0C282.173 0 285.569 1.62196 287.692 4.33702C347.897 81.0989 431.604 109.519 543.677 91.2187C547.305 90.6192 551.048 91.677 553.673 94.0748C556.297 96.4725 557.455 99.8575 556.837 103.207L532.524 229.439C526.658 259.869 517.087 289.664 504.12 318.049C496.98 333.563 488.953 348.549 480.231 362.583C472.049 375.735 462.98 388.64 453.254 400.981C444.069 412.653 433.997 424.148 423.229 435.078C412.655 445.903 401.463 456.199 390.04 465.649C378.732 475.063 366.575 484.161 353.994 492.658C351.91 494.069 350.096 495.268 348.244 496.467L285.106 537.58C283.1 538.85 280.822 539.484 278.507 539.484ZM25.2234 113.891L46.7581 225.843C61.6934 303.416 101.174 374.501 160.915 431.411C179.633 449.182 200.164 465.402 221.93 479.577L278.507 516.424L335.045 479.577C336.821 478.413 338.557 477.25 340.294 476.086C352.489 467.87 364.028 459.232 374.796 450.275C385.679 441.284 396.292 431.517 406.364 421.186C416.591 410.784 426.162 399.924 434.846 388.817C444.108 377.075 452.753 364.804 460.51 352.287C468.807 338.958 476.41 324.748 483.202 309.974C495.552 283.035 504.621 254.721 510.217 225.808L531.791 113.856C424.966 127.466 339.908 98.4823 278.507 27.5384C217.067 98.5176 131.971 127.537 25.2234 113.891Z" fill="url(#paint27_linear_48_444)"/>
<defs>
<linearGradient id="paint0_linear_48_444" x1="99.6682" y1="55.8639" x2="99.6682" y2="565.141" gradientUnits="userSpaceOnUse">
<stop stop-color="#527636"/>
<stop offset="1" stop-color="#94C93D"/>
</linearGradient>
<linearGradient id="paint1_linear_48_444" x1="125.826" y1="256.714" x2="125.826" y2="415.728" gradientUnits="userSpaceOnUse">
<stop stop-color="#00B0B2"/>
<stop offset="0.995" stop-color="#3465B0"/>
</linearGradient>
<linearGradient id="paint2_linear_48_444" x1="114.368" y1="55.9079" x2="114.368" y2="565.09" gradientUnits="userSpaceOnUse">
<stop stop-color="#00B0B2"/>
<stop offset="0.995" stop-color="#3465B0"/>
</linearGradient>
<linearGradient id="paint3_linear_48_444" x1="386.78" y1="55.8828" x2="386.78" y2="565.106" gradientUnits="userSpaceOnUse">
<stop stop-color="#00B0B2"/>
<stop offset="0.995" stop-color="#3465B0"/>
</linearGradient>
<linearGradient id="paint4_linear_48_444" x1="183.445" y1="55.886" x2="183.445" y2="565.305" gradientUnits="userSpaceOnUse">
<stop stop-color="#527636"/>
<stop offset="1" stop-color="#94C93D"/>
</linearGradient>
<linearGradient id="paint5_linear_48_444" x1="277.462" y1="55.9078" x2="277.462" y2="565.094" gradientUnits="userSpaceOnUse">
<stop stop-color="#00B0B2"/>
<stop offset="0.995" stop-color="#3465B0"/>
</linearGradient>
<linearGradient id="paint6_linear_48_444" x1="472.142" y1="195.216" x2="472.142" y2="386.118" gradientUnits="userSpaceOnUse">
<stop stop-color="#00B0B2"/>
<stop offset="0.995" stop-color="#3465B0"/>
</linearGradient>
<linearGradient id="paint7_linear_48_444" x1="442.648" y1="55.9079" x2="442.648" y2="565.09" gradientUnits="userSpaceOnUse">
<stop stop-color="#527636"/>
<stop offset="1" stop-color="#94C93D"/>
</linearGradient>
<linearGradient id="paint8_linear_48_444" x1="342.472" y1="55.9085" x2="342.472" y2="565.09" gradientUnits="userSpaceOnUse">
<stop stop-color="#00B0B2"/>
<stop offset="0.995" stop-color="#3465B0"/>
</linearGradient>
<linearGradient id="paint9_linear_48_444" x1="429.569" y1="88.3631" x2="429.569" y2="502.946" gradientUnits="userSpaceOnUse">
<stop stop-color="#00B0B2"/>
<stop offset="0.995" stop-color="#3465B0"/>
</linearGradient>
<linearGradient id="paint10_linear_48_444" x1="209.047" y1="247.222" x2="209.047" y2="480.377" gradientUnits="userSpaceOnUse">
<stop stop-color="#00B0B2"/>
<stop offset="0.995" stop-color="#3465B0"/>
</linearGradient>
<linearGradient id="paint11_linear_48_444" x1="199.202" y1="55.9082" x2="199.202" y2="565.091" gradientUnits="userSpaceOnUse">
<stop stop-color="#00B0B2"/>
<stop offset="0.995" stop-color="#3465B0"/>
</linearGradient>
<linearGradient id="paint12_linear_48_444" x1="160.722" y1="55.9083" x2="160.722" y2="565.091" gradientUnits="userSpaceOnUse">
<stop stop-color="#00B0B2"/>
<stop offset="0.995" stop-color="#3465B0"/>
</linearGradient>
<linearGradient id="paint13_linear_48_444" x1="272.72" y1="159.081" x2="272.72" y2="526.728" gradientUnits="userSpaceOnUse">
<stop stop-color="#00B0B2"/>
<stop offset="0.995" stop-color="#3465B0"/>
</linearGradient>
<linearGradient id="paint14_linear_48_444" x1="196.08" y1="55.9082" x2="196.08" y2="565.092" gradientUnits="userSpaceOnUse">
<stop stop-color="#00B0B2"/>
<stop offset="0.995" stop-color="#3465B0"/>
</linearGradient>
<linearGradient id="paint15_linear_48_444" x1="315.706" y1="55.9074" x2="315.706" y2="565.092" gradientUnits="userSpaceOnUse">
<stop stop-color="#00B0B2"/>
<stop offset="0.995" stop-color="#3465B0"/>
</linearGradient>
<linearGradient id="paint16_linear_48_444" x1="224.013" y1="55.9078" x2="224.013" y2="565.091" gradientUnits="userSpaceOnUse">
<stop stop-color="#527636"/>
<stop offset="1" stop-color="#94C93D"/>
</linearGradient>
<linearGradient id="paint17_linear_48_444" x1="409.683" y1="128.596" x2="409.683" y2="496.243" gradientUnits="userSpaceOnUse">
<stop stop-color="#00B0B2"/>
<stop offset="0.995" stop-color="#3465B0"/>
</linearGradient>
<linearGradient id="paint18_linear_48_444" x1="228.077" y1="55.9086" x2="228.077" y2="565.091" gradientUnits="userSpaceOnUse">
<stop stop-color="#527636"/>
<stop offset="1" stop-color="#94C93D"/>
</linearGradient>
<linearGradient id="paint19_linear_48_444" x1="378.726" y1="55.9087" x2="378.726" y2="565.09" gradientUnits="userSpaceOnUse">
<stop stop-color="#527636"/>
<stop offset="1" stop-color="#94C93D"/>
</linearGradient>
<linearGradient id="paint20_linear_48_444" x1="262.073" y1="55.9089" x2="262.073" y2="565.09" gradientUnits="userSpaceOnUse">
<stop stop-color="#00B0B2"/>
<stop offset="0.995" stop-color="#3465B0"/>
</linearGradient>
<linearGradient id="paint21_linear_48_444" x1="312.913" y1="55.9084" x2="312.913" y2="565.091" gradientUnits="userSpaceOnUse">
<stop stop-color="#00B0B2"/>
<stop offset="0.995" stop-color="#3465B0"/>
</linearGradient>
<linearGradient id="paint22_linear_48_444" x1="309.808" y1="151.894" x2="309.808" y2="520.193" gradientUnits="userSpaceOnUse">
<stop stop-color="#00B0B2"/>
<stop offset="0.995" stop-color="#3465B0"/>
</linearGradient>
<linearGradient id="paint23_linear_48_444" x1="243.714" y1="55.9079" x2="243.714" y2="565.09" gradientUnits="userSpaceOnUse">
<stop stop-color="#00B0B2"/>
<stop offset="0.995" stop-color="#3465B0"/>
</linearGradient>
<linearGradient id="paint24_linear_48_444" x1="394.825" y1="256.056" x2="394.825" y2="466.614" gradientUnits="userSpaceOnUse">
<stop stop-color="#00B0B2"/>
<stop offset="0.995" stop-color="#3465B0"/>
</linearGradient>
<linearGradient id="paint25_linear_48_444" x1="351.427" y1="55.9087" x2="351.427" y2="565.091" gradientUnits="userSpaceOnUse">
<stop stop-color="#00B0B2"/>
<stop offset="0.995" stop-color="#3465B0"/>
</linearGradient>
<linearGradient id="paint26_linear_48_444" x1="319.826" y1="79.4235" x2="319.826" y2="529.173" gradientUnits="userSpaceOnUse">
<stop stop-color="#527636"/>
<stop offset="1" stop-color="#94C93D"/>
</linearGradient>
<linearGradient id="paint27_linear_48_444" x1="-5.22107e-05" y1="269.762" x2="557.008" y2="269.762" gradientUnits="userSpaceOnUse">
<stop stop-color="#F99B1C"/>
<stop offset="1" stop-color="#FFE100"/>
</linearGradient>
</defs>
</svg>
